<mxfile host="app.diagrams.net" modified="2024-07-15T22:54:15.436Z" agent="Mozilla/5.0 (Windows NT 10.0; Win64; x64) AppleWebKit/537.36 (KHTML, like Gecko) Chrome/126.0.0.0 Safari/537.36" etag="7PibJeJj4rCB1Zt6ivI9" version="24.6.5" type="device">
  <diagram name="PÃ¡gina-1" id="dPgl8uF72EXa9FX6pScQ">
    <mxGraphModel dx="2138" dy="1019" grid="1" gridSize="10" guides="1" tooltips="1" connect="1" arrows="1" fold="1" page="1" pageScale="1" pageWidth="827" pageHeight="1169" math="0" shadow="0">
      <root>
        <mxCell id="0" />
        <mxCell id="1" parent="0" />
        <mxCell id="zLT0Esx3YDBOJbZAiZf_-37" value="" style="rounded=1;whiteSpace=wrap;html=1;fillColor=#dae8fc;strokeColor=#6c8ebf;" vertex="1" parent="1">
          <mxGeometry x="-150" y="2140" width="870" height="540" as="geometry" />
        </mxCell>
        <mxCell id="zLT0Esx3YDBOJbZAiZf_-16" value="" style="rounded=1;whiteSpace=wrap;html=1;dashed=1;dashPattern=12 12;fillColor=#f8cecc;strokeColor=#b85450;" vertex="1" parent="1">
          <mxGeometry x="110" y="1630" width="640" height="360" as="geometry" />
        </mxCell>
        <mxCell id="-7iJR6QD0WcT6EOPfolF-30" value="" style="rounded=1;whiteSpace=wrap;html=1;fillColor=#dae8fc;strokeColor=#6c8ebf;" parent="1" vertex="1">
          <mxGeometry x="110" y="710" width="390" height="140" as="geometry" />
        </mxCell>
        <mxCell id="-7iJR6QD0WcT6EOPfolF-10" value="" style="rounded=1;whiteSpace=wrap;html=1;strokeWidth=3;strokeColor=#FF3333;" parent="1" vertex="1">
          <mxGeometry x="550" y="160" width="210" height="290" as="geometry" />
        </mxCell>
        <mxCell id="-7iJR6QD0WcT6EOPfolF-3" style="edgeStyle=orthogonalEdgeStyle;rounded=0;orthogonalLoop=1;jettySize=auto;html=1;" parent="1" source="-7iJR6QD0WcT6EOPfolF-1" target="-7iJR6QD0WcT6EOPfolF-2" edge="1">
          <mxGeometry relative="1" as="geometry" />
        </mxCell>
        <mxCell id="-7iJR6QD0WcT6EOPfolF-1" value="Actor" style="shape=umlActor;verticalLabelPosition=bottom;verticalAlign=top;html=1;outlineConnect=0;" parent="1" vertex="1">
          <mxGeometry x="90" y="190" width="30" height="60" as="geometry" />
        </mxCell>
        <mxCell id="-7iJR6QD0WcT6EOPfolF-7" style="edgeStyle=orthogonalEdgeStyle;rounded=0;orthogonalLoop=1;jettySize=auto;html=1;" parent="1" source="-7iJR6QD0WcT6EOPfolF-2" target="-7iJR6QD0WcT6EOPfolF-6" edge="1">
          <mxGeometry relative="1" as="geometry" />
        </mxCell>
        <mxCell id="-7iJR6QD0WcT6EOPfolF-9" style="edgeStyle=orthogonalEdgeStyle;rounded=0;orthogonalLoop=1;jettySize=auto;html=1;" parent="1" source="-7iJR6QD0WcT6EOPfolF-2" target="-7iJR6QD0WcT6EOPfolF-8" edge="1">
          <mxGeometry relative="1" as="geometry" />
        </mxCell>
        <mxCell id="-7iJR6QD0WcT6EOPfolF-2" value="" style="shape=process;whiteSpace=wrap;html=1;backgroundOutline=1;" parent="1" vertex="1">
          <mxGeometry x="590" y="190" width="120" height="60" as="geometry" />
        </mxCell>
        <mxCell id="-7iJR6QD0WcT6EOPfolF-5" style="edgeStyle=orthogonalEdgeStyle;rounded=0;orthogonalLoop=1;jettySize=auto;html=1;" parent="1" source="-7iJR6QD0WcT6EOPfolF-4" target="-7iJR6QD0WcT6EOPfolF-2" edge="1">
          <mxGeometry relative="1" as="geometry" />
        </mxCell>
        <mxCell id="-7iJR6QD0WcT6EOPfolF-4" value="" style="rounded=1;whiteSpace=wrap;html=1;" parent="1" vertex="1">
          <mxGeometry x="615" y="310" width="70" height="100" as="geometry" />
        </mxCell>
        <mxCell id="-7iJR6QD0WcT6EOPfolF-6" value="" style="shape=cylinder3;whiteSpace=wrap;html=1;boundedLbl=1;backgroundOutline=1;size=15;fillColor=#f8cecc;strokeColor=#b85450;" parent="1" vertex="1">
          <mxGeometry x="730" y="30" width="60" height="80" as="geometry" />
        </mxCell>
        <mxCell id="-7iJR6QD0WcT6EOPfolF-8" value="" style="shape=cylinder3;whiteSpace=wrap;html=1;boundedLbl=1;backgroundOutline=1;size=15;fillColor=#d5e8d4;strokeColor=#82b366;" parent="1" vertex="1">
          <mxGeometry x="590" y="30" width="60" height="80" as="geometry" />
        </mxCell>
        <mxCell id="-7iJR6QD0WcT6EOPfolF-40" style="edgeStyle=orthogonalEdgeStyle;rounded=0;orthogonalLoop=1;jettySize=auto;html=1;entryX=0;entryY=0.5;entryDx=0;entryDy=0;" parent="1" source="-7iJR6QD0WcT6EOPfolF-13" target="-7iJR6QD0WcT6EOPfolF-39" edge="1">
          <mxGeometry relative="1" as="geometry" />
        </mxCell>
        <mxCell id="-7iJR6QD0WcT6EOPfolF-13" value="Actor" style="shape=umlActor;verticalLabelPosition=bottom;verticalAlign=top;html=1;outlineConnect=0;" parent="1" vertex="1">
          <mxGeometry x="90" y="620" width="30" height="60" as="geometry" />
        </mxCell>
        <mxCell id="-7iJR6QD0WcT6EOPfolF-14" style="edgeStyle=orthogonalEdgeStyle;rounded=0;orthogonalLoop=1;jettySize=auto;html=1;" parent="1" source="-7iJR6QD0WcT6EOPfolF-16" target="-7iJR6QD0WcT6EOPfolF-19" edge="1">
          <mxGeometry relative="1" as="geometry" />
        </mxCell>
        <mxCell id="-7iJR6QD0WcT6EOPfolF-15" style="edgeStyle=orthogonalEdgeStyle;rounded=0;orthogonalLoop=1;jettySize=auto;html=1;" parent="1" source="-7iJR6QD0WcT6EOPfolF-16" target="-7iJR6QD0WcT6EOPfolF-20" edge="1">
          <mxGeometry relative="1" as="geometry" />
        </mxCell>
        <mxCell id="-7iJR6QD0WcT6EOPfolF-27" style="edgeStyle=orthogonalEdgeStyle;rounded=0;orthogonalLoop=1;jettySize=auto;html=1;strokeWidth=3;" parent="1" source="-7iJR6QD0WcT6EOPfolF-16" target="-7iJR6QD0WcT6EOPfolF-21" edge="1">
          <mxGeometry relative="1" as="geometry">
            <Array as="points">
              <mxPoint x="580" y="770" />
            </Array>
          </mxGeometry>
        </mxCell>
        <mxCell id="-7iJR6QD0WcT6EOPfolF-16" value="8080" style="shape=process;whiteSpace=wrap;html=1;backgroundOutline=1;" parent="1" vertex="1">
          <mxGeometry x="520" y="650" width="120" height="60" as="geometry" />
        </mxCell>
        <mxCell id="-7iJR6QD0WcT6EOPfolF-19" value="" style="shape=cylinder3;whiteSpace=wrap;html=1;boundedLbl=1;backgroundOutline=1;size=15;fillColor=#f8cecc;strokeColor=#b85450;" parent="1" vertex="1">
          <mxGeometry x="700" y="530" width="60" height="80" as="geometry" />
        </mxCell>
        <mxCell id="-7iJR6QD0WcT6EOPfolF-20" value="" style="shape=cylinder3;whiteSpace=wrap;html=1;boundedLbl=1;backgroundOutline=1;size=15;fillColor=#d5e8d4;strokeColor=#82b366;" parent="1" vertex="1">
          <mxGeometry x="520" y="490" width="60" height="80" as="geometry" />
        </mxCell>
        <mxCell id="-7iJR6QD0WcT6EOPfolF-21" value="ConfigServer" style="shape=process;whiteSpace=wrap;html=1;backgroundOutline=1;" parent="1" vertex="1">
          <mxGeometry x="300" y="750" width="120" height="60" as="geometry" />
        </mxCell>
        <mxCell id="-7iJR6QD0WcT6EOPfolF-28" value="" style="verticalLabelPosition=bottom;html=1;verticalAlign=top;align=center;strokeColor=none;fillColor=#00BEF2;shape=mxgraph.azure.github_code;pointerEvents=1;" parent="1" vertex="1">
          <mxGeometry x="160" y="750" width="60" height="70" as="geometry" />
        </mxCell>
        <mxCell id="-7iJR6QD0WcT6EOPfolF-29" style="edgeStyle=orthogonalEdgeStyle;rounded=0;orthogonalLoop=1;jettySize=auto;html=1;entryX=1.017;entryY=0.343;entryDx=0;entryDy=0;entryPerimeter=0;" parent="1" source="-7iJR6QD0WcT6EOPfolF-21" target="-7iJR6QD0WcT6EOPfolF-28" edge="1">
          <mxGeometry relative="1" as="geometry">
            <mxPoint x="250" y="810" as="targetPoint" />
          </mxGeometry>
        </mxCell>
        <mxCell id="-7iJR6QD0WcT6EOPfolF-32" style="edgeStyle=orthogonalEdgeStyle;rounded=0;orthogonalLoop=1;jettySize=auto;html=1;" parent="1" source="-7iJR6QD0WcT6EOPfolF-34" target="-7iJR6QD0WcT6EOPfolF-35" edge="1">
          <mxGeometry relative="1" as="geometry" />
        </mxCell>
        <mxCell id="-7iJR6QD0WcT6EOPfolF-33" style="edgeStyle=orthogonalEdgeStyle;rounded=0;orthogonalLoop=1;jettySize=auto;html=1;" parent="1" source="-7iJR6QD0WcT6EOPfolF-34" target="-7iJR6QD0WcT6EOPfolF-36" edge="1">
          <mxGeometry relative="1" as="geometry" />
        </mxCell>
        <mxCell id="-7iJR6QD0WcT6EOPfolF-34" value="8081" style="shape=process;whiteSpace=wrap;html=1;backgroundOutline=1;" parent="1" vertex="1">
          <mxGeometry x="630" y="820" width="120" height="60" as="geometry" />
        </mxCell>
        <mxCell id="-7iJR6QD0WcT6EOPfolF-35" value="" style="shape=cylinder3;whiteSpace=wrap;html=1;boundedLbl=1;backgroundOutline=1;size=15;fillColor=#f8cecc;strokeColor=#b85450;" parent="1" vertex="1">
          <mxGeometry x="710" y="950" width="60" height="80" as="geometry" />
        </mxCell>
        <mxCell id="-7iJR6QD0WcT6EOPfolF-36" value="" style="shape=cylinder3;whiteSpace=wrap;html=1;boundedLbl=1;backgroundOutline=1;size=15;fillColor=#d5e8d4;strokeColor=#82b366;" parent="1" vertex="1">
          <mxGeometry x="535" y="960" width="60" height="80" as="geometry" />
        </mxCell>
        <mxCell id="-7iJR6QD0WcT6EOPfolF-37" style="edgeStyle=orthogonalEdgeStyle;rounded=0;orthogonalLoop=1;jettySize=auto;html=1;entryX=0.592;entryY=0.033;entryDx=0;entryDy=0;entryPerimeter=0;strokeWidth=3;" parent="1" source="-7iJR6QD0WcT6EOPfolF-21" target="-7iJR6QD0WcT6EOPfolF-34" edge="1">
          <mxGeometry relative="1" as="geometry" />
        </mxCell>
        <mxCell id="-7iJR6QD0WcT6EOPfolF-38" value="8084" style="shape=process;whiteSpace=wrap;html=1;backgroundOutline=1;" parent="1" vertex="1">
          <mxGeometry x="350" y="910" width="120" height="60" as="geometry" />
        </mxCell>
        <mxCell id="-7iJR6QD0WcT6EOPfolF-41" style="edgeStyle=orthogonalEdgeStyle;rounded=0;orthogonalLoop=1;jettySize=auto;html=1;entryX=0;entryY=0.5;entryDx=0;entryDy=0;" parent="1" source="-7iJR6QD0WcT6EOPfolF-39" target="-7iJR6QD0WcT6EOPfolF-16" edge="1">
          <mxGeometry relative="1" as="geometry" />
        </mxCell>
        <mxCell id="-7iJR6QD0WcT6EOPfolF-42" style="edgeStyle=orthogonalEdgeStyle;rounded=0;orthogonalLoop=1;jettySize=auto;html=1;entryX=0;entryY=0.75;entryDx=0;entryDy=0;" parent="1" source="-7iJR6QD0WcT6EOPfolF-39" target="-7iJR6QD0WcT6EOPfolF-34" edge="1">
          <mxGeometry relative="1" as="geometry" />
        </mxCell>
        <mxCell id="-7iJR6QD0WcT6EOPfolF-39" value="8080&lt;div&gt;8081&lt;/div&gt;&lt;div&gt;8084&lt;/div&gt;&lt;div&gt;Eureka!!!&lt;/div&gt;" style="shape=process;whiteSpace=wrap;html=1;backgroundOutline=1;" parent="1" vertex="1">
          <mxGeometry x="260" y="510" width="120" height="100" as="geometry" />
        </mxCell>
        <mxCell id="-7iJR6QD0WcT6EOPfolF-43" value="" style="aspect=fixed;sketch=0;html=1;dashed=0;whitespace=wrap;verticalLabelPosition=bottom;verticalAlign=top;fillColor=#2875E2;strokeColor=#ffffff;points=[[0.005,0.63,0],[0.1,0.2,0],[0.9,0.2,0],[0.5,0,0],[0.995,0.63,0],[0.72,0.99,0],[0.5,1,0],[0.28,0.99,0]];shape=mxgraph.kubernetes.icon2;prIcon=api" parent="1" vertex="1">
          <mxGeometry x="145" y="430" width="50" height="48" as="geometry" />
        </mxCell>
        <mxCell id="-7iJR6QD0WcT6EOPfolF-44" value="" style="image;sketch=0;aspect=fixed;html=1;points=[];align=center;fontSize=12;image=img/lib/mscae/Docker.svg;" parent="1" vertex="1">
          <mxGeometry x="615" y="690" width="50" height="41" as="geometry" />
        </mxCell>
        <mxCell id="-7iJR6QD0WcT6EOPfolF-45" value="" style="image;sketch=0;aspect=fixed;html=1;points=[];align=center;fontSize=12;image=img/lib/mscae/Docker.svg;" parent="1" vertex="1">
          <mxGeometry x="730" y="850" width="50" height="41" as="geometry" />
        </mxCell>
        <mxCell id="-7iJR6QD0WcT6EOPfolF-46" value="" style="image;sketch=0;aspect=fixed;html=1;points=[];align=center;fontSize=12;image=img/lib/mscae/Docker.svg;" parent="1" vertex="1">
          <mxGeometry x="440" y="950" width="50" height="41" as="geometry" />
        </mxCell>
        <mxCell id="-7iJR6QD0WcT6EOPfolF-61" style="edgeStyle=orthogonalEdgeStyle;rounded=0;orthogonalLoop=1;jettySize=auto;html=1;exitX=1;exitY=0.5;exitDx=0;exitDy=0;" parent="1" source="-7iJR6QD0WcT6EOPfolF-47" target="-7iJR6QD0WcT6EOPfolF-60" edge="1">
          <mxGeometry relative="1" as="geometry" />
        </mxCell>
        <mxCell id="-7iJR6QD0WcT6EOPfolF-47" value="CUENTA" style="shape=process;whiteSpace=wrap;html=1;backgroundOutline=1;" parent="1" vertex="1">
          <mxGeometry x="165" y="1200" width="120" height="60" as="geometry" />
        </mxCell>
        <mxCell id="-7iJR6QD0WcT6EOPfolF-54" style="edgeStyle=orthogonalEdgeStyle;rounded=0;orthogonalLoop=1;jettySize=auto;html=1;" parent="1" source="-7iJR6QD0WcT6EOPfolF-48" target="-7iJR6QD0WcT6EOPfolF-52" edge="1">
          <mxGeometry relative="1" as="geometry" />
        </mxCell>
        <mxCell id="-7iJR6QD0WcT6EOPfolF-48" value="CLIENTE" style="shape=process;whiteSpace=wrap;html=1;backgroundOutline=1;" parent="1" vertex="1">
          <mxGeometry x="165" y="1320" width="120" height="60" as="geometry" />
        </mxCell>
        <mxCell id="-7iJR6QD0WcT6EOPfolF-55" style="edgeStyle=orthogonalEdgeStyle;rounded=0;orthogonalLoop=1;jettySize=auto;html=1;exitX=1;exitY=0.5;exitDx=0;exitDy=0;" parent="1" source="-7iJR6QD0WcT6EOPfolF-49" target="-7iJR6QD0WcT6EOPfolF-52" edge="1">
          <mxGeometry relative="1" as="geometry" />
        </mxCell>
        <mxCell id="-7iJR6QD0WcT6EOPfolF-49" value="TARJETA" style="shape=process;whiteSpace=wrap;html=1;backgroundOutline=1;" parent="1" vertex="1">
          <mxGeometry x="160" y="1420" width="120" height="60" as="geometry" />
        </mxCell>
        <mxCell id="-7iJR6QD0WcT6EOPfolF-52" value="CQRS" style="shape=cylinder3;whiteSpace=wrap;html=1;boundedLbl=1;backgroundOutline=1;size=15;" parent="1" vertex="1">
          <mxGeometry x="690" y="1310" width="80" height="90" as="geometry" />
        </mxCell>
        <mxCell id="-7iJR6QD0WcT6EOPfolF-53" style="edgeStyle=orthogonalEdgeStyle;rounded=0;orthogonalLoop=1;jettySize=auto;html=1;entryX=0.5;entryY=0;entryDx=0;entryDy=0;entryPerimeter=0;" parent="1" source="-7iJR6QD0WcT6EOPfolF-63" target="-7iJR6QD0WcT6EOPfolF-52" edge="1">
          <mxGeometry relative="1" as="geometry" />
        </mxCell>
        <mxCell id="-7iJR6QD0WcT6EOPfolF-56" value="" style="verticalLabelPosition=bottom;html=1;verticalAlign=top;align=center;strokeColor=none;fillColor=#00BEF2;shape=mxgraph.azure.service_endpoint;" parent="1" vertex="1">
          <mxGeometry x="115" y="1220" width="50" height="20" as="geometry" />
        </mxCell>
        <mxCell id="-7iJR6QD0WcT6EOPfolF-58" value="" style="verticalLabelPosition=bottom;html=1;verticalAlign=top;align=center;strokeColor=none;fillColor=#00BEF2;shape=mxgraph.azure.service_endpoint;" parent="1" vertex="1">
          <mxGeometry x="110" y="1330" width="50" height="20" as="geometry" />
        </mxCell>
        <mxCell id="-7iJR6QD0WcT6EOPfolF-59" value="" style="verticalLabelPosition=bottom;html=1;verticalAlign=top;align=center;strokeColor=none;fillColor=#00BEF2;shape=mxgraph.azure.service_endpoint;" parent="1" vertex="1">
          <mxGeometry x="110" y="1440" width="50" height="20" as="geometry" />
        </mxCell>
        <mxCell id="-7iJR6QD0WcT6EOPfolF-62" style="edgeStyle=orthogonalEdgeStyle;rounded=0;orthogonalLoop=1;jettySize=auto;html=1;entryX=1;entryY=0.25;entryDx=0;entryDy=0;" parent="1" source="-7iJR6QD0WcT6EOPfolF-60" target="-7iJR6QD0WcT6EOPfolF-48" edge="1">
          <mxGeometry relative="1" as="geometry" />
        </mxCell>
        <mxCell id="-7iJR6QD0WcT6EOPfolF-66" style="edgeStyle=orthogonalEdgeStyle;rounded=0;orthogonalLoop=1;jettySize=auto;html=1;exitX=0.5;exitY=1;exitDx=0;exitDy=0;entryX=1;entryY=0.25;entryDx=0;entryDy=0;" parent="1" source="-7iJR6QD0WcT6EOPfolF-60" target="-7iJR6QD0WcT6EOPfolF-49" edge="1">
          <mxGeometry relative="1" as="geometry" />
        </mxCell>
        <mxCell id="-7iJR6QD0WcT6EOPfolF-68" style="edgeStyle=orthogonalEdgeStyle;rounded=0;orthogonalLoop=1;jettySize=auto;html=1;" parent="1" source="-7iJR6QD0WcT6EOPfolF-60" target="-7iJR6QD0WcT6EOPfolF-67" edge="1">
          <mxGeometry relative="1" as="geometry" />
        </mxCell>
        <mxCell id="-7iJR6QD0WcT6EOPfolF-60" value="NEGOCIO" style="shape=process;whiteSpace=wrap;html=1;backgroundOutline=1;fillColor=#e1d5e7;strokeColor=#9673a6;" parent="1" vertex="1">
          <mxGeometry x="354" y="1270" width="120" height="60" as="geometry" />
        </mxCell>
        <mxCell id="-7iJR6QD0WcT6EOPfolF-64" value="" style="edgeStyle=orthogonalEdgeStyle;rounded=0;orthogonalLoop=1;jettySize=auto;html=1;entryX=0.5;entryY=0;entryDx=0;entryDy=0;entryPerimeter=0;" parent="1" source="-7iJR6QD0WcT6EOPfolF-47" target="-7iJR6QD0WcT6EOPfolF-63" edge="1">
          <mxGeometry relative="1" as="geometry">
            <mxPoint x="285" y="1250" as="sourcePoint" />
            <mxPoint x="720" y="1310" as="targetPoint" />
          </mxGeometry>
        </mxCell>
        <mxCell id="-7iJR6QD0WcT6EOPfolF-63" value="CUENTA PERSISTENCIA" style="shape=process;whiteSpace=wrap;html=1;backgroundOutline=1;" parent="1" vertex="1">
          <mxGeometry x="590" y="1210" width="120" height="60" as="geometry" />
        </mxCell>
        <mxCell id="-7iJR6QD0WcT6EOPfolF-65" value="" style="shape=flexArrow;endArrow=classic;html=1;rounded=0;" parent="1" edge="1">
          <mxGeometry width="50" height="50" relative="1" as="geometry">
            <mxPoint x="120" y="1130" as="sourcePoint" />
            <mxPoint x="730" y="1130" as="targetPoint" />
          </mxGeometry>
        </mxCell>
        <mxCell id="-7iJR6QD0WcT6EOPfolF-67" value="" style="shape=process;whiteSpace=wrap;html=1;backgroundOutline=1;" parent="1" vertex="1">
          <mxGeometry x="490" y="1360" width="120" height="60" as="geometry" />
        </mxCell>
        <mxCell id="-7iJR6QD0WcT6EOPfolF-69" style="edgeStyle=orthogonalEdgeStyle;rounded=0;orthogonalLoop=1;jettySize=auto;html=1;entryX=0.358;entryY=1.033;entryDx=0;entryDy=0;entryPerimeter=0;" parent="1" source="-7iJR6QD0WcT6EOPfolF-67" target="-7iJR6QD0WcT6EOPfolF-63" edge="1">
          <mxGeometry relative="1" as="geometry" />
        </mxCell>
        <mxCell id="-7iJR6QD0WcT6EOPfolF-70" value="" style="shape=flexArrow;endArrow=classic;html=1;rounded=0;" parent="1" edge="1">
          <mxGeometry width="50" height="50" relative="1" as="geometry">
            <mxPoint x="730" y="1520" as="sourcePoint" />
            <mxPoint x="160" y="1520" as="targetPoint" />
          </mxGeometry>
        </mxCell>
        <mxCell id="-7iJR6QD0WcT6EOPfolF-71" value="&lt;font style=&quot;font-size: 18px;&quot;&gt;PATRON SAGA&lt;/font&gt;" style="text;html=1;align=center;verticalAlign=middle;whiteSpace=wrap;rounded=0;" parent="1" vertex="1">
          <mxGeometry x="320" y="1090" width="260" height="30" as="geometry" />
        </mxCell>
        <mxCell id="zLT0Esx3YDBOJbZAiZf_-1" value="&lt;h1 style=&quot;margin-top: 0px;&quot;&gt;DDD - Domain Driver Design&lt;/h1&gt;" style="text;html=1;whiteSpace=wrap;overflow=hidden;rounded=0;" vertex="1" parent="1">
          <mxGeometry x="275" y="1550" width="380" height="120" as="geometry" />
        </mxCell>
        <mxCell id="zLT0Esx3YDBOJbZAiZf_-2" value="Feign" style="text;html=1;align=center;verticalAlign=middle;whiteSpace=wrap;rounded=0;" vertex="1" parent="1">
          <mxGeometry x="430" y="1240" width="60" height="30" as="geometry" />
        </mxCell>
        <mxCell id="zLT0Esx3YDBOJbZAiZf_-3" value="NEGOCIO" style="shape=process;whiteSpace=wrap;html=1;backgroundOutline=1;fillColor=#e1d5e7;strokeColor=#9673a6;" vertex="1" parent="1">
          <mxGeometry x="140" y="1770" width="120" height="60" as="geometry" />
        </mxCell>
        <mxCell id="zLT0Esx3YDBOJbZAiZf_-4" value="CUENTA" style="shape=process;whiteSpace=wrap;html=1;backgroundOutline=1;" vertex="1" parent="1">
          <mxGeometry x="560" y="1690" width="120" height="60" as="geometry" />
        </mxCell>
        <mxCell id="zLT0Esx3YDBOJbZAiZf_-5" value="CLIENTE" style="shape=process;whiteSpace=wrap;html=1;backgroundOutline=1;" vertex="1" parent="1">
          <mxGeometry x="560" y="1864" width="120" height="60" as="geometry" />
        </mxCell>
        <mxCell id="zLT0Esx3YDBOJbZAiZf_-6" value="" style="verticalLabelPosition=bottom;html=1;verticalAlign=top;align=center;strokeColor=none;fillColor=#00BEF2;shape=mxgraph.azure.service_endpoint;" vertex="1" parent="1">
          <mxGeometry x="510" y="1700" width="50" height="20" as="geometry" />
        </mxCell>
        <mxCell id="zLT0Esx3YDBOJbZAiZf_-8" value="" style="verticalLabelPosition=bottom;html=1;verticalAlign=top;align=center;strokeColor=none;fillColor=#00BEF2;shape=mxgraph.azure.service_endpoint;" vertex="1" parent="1">
          <mxGeometry x="510" y="1870" width="50" height="20" as="geometry" />
        </mxCell>
        <mxCell id="zLT0Esx3YDBOJbZAiZf_-9" style="edgeStyle=orthogonalEdgeStyle;rounded=0;orthogonalLoop=1;jettySize=auto;html=1;entryX=0;entryY=0.5;entryDx=0;entryDy=0;entryPerimeter=0;" edge="1" parent="1" source="zLT0Esx3YDBOJbZAiZf_-3" target="zLT0Esx3YDBOJbZAiZf_-6">
          <mxGeometry relative="1" as="geometry" />
        </mxCell>
        <mxCell id="zLT0Esx3YDBOJbZAiZf_-10" style="edgeStyle=orthogonalEdgeStyle;rounded=0;orthogonalLoop=1;jettySize=auto;html=1;entryX=0;entryY=0.5;entryDx=0;entryDy=0;entryPerimeter=0;" edge="1" parent="1" source="zLT0Esx3YDBOJbZAiZf_-3" target="zLT0Esx3YDBOJbZAiZf_-8">
          <mxGeometry relative="1" as="geometry" />
        </mxCell>
        <mxCell id="zLT0Esx3YDBOJbZAiZf_-17" value="&lt;h1 style=&quot;margin-top: 0px;&quot;&gt;SERVICIOS RELACION DE CONFIANZA&lt;/h1&gt;" style="text;html=1;whiteSpace=wrap;overflow=hidden;rounded=0;" vertex="1" parent="1">
          <mxGeometry x="183" y="2000" width="502" height="60" as="geometry" />
        </mxCell>
        <mxCell id="zLT0Esx3YDBOJbZAiZf_-18" value="CORS" style="text;html=1;align=center;verticalAlign=middle;whiteSpace=wrap;rounded=0;" vertex="1" parent="1">
          <mxGeometry x="580" y="1650" width="60" height="30" as="geometry" />
        </mxCell>
        <mxCell id="zLT0Esx3YDBOJbZAiZf_-19" value="CORS" style="text;html=1;align=center;verticalAlign=middle;whiteSpace=wrap;rounded=0;" vertex="1" parent="1">
          <mxGeometry x="580" y="1830" width="60" height="30" as="geometry" />
        </mxCell>
        <mxCell id="zLT0Esx3YDBOJbZAiZf_-23" style="edgeStyle=orthogonalEdgeStyle;rounded=0;orthogonalLoop=1;jettySize=auto;html=1;entryX=1;entryY=0.5;entryDx=0;entryDy=0;" edge="1" parent="1" source="zLT0Esx3YDBOJbZAiZf_-20" target="zLT0Esx3YDBOJbZAiZf_-22">
          <mxGeometry relative="1" as="geometry">
            <Array as="points">
              <mxPoint x="1065" y="1566" />
              <mxPoint x="1065" y="1770" />
              <mxPoint x="1020" y="1770" />
            </Array>
          </mxGeometry>
        </mxCell>
        <mxCell id="zLT0Esx3YDBOJbZAiZf_-20" value="" style="shape=image;html=1;verticalAlign=top;verticalLabelPosition=bottom;labelBackgroundColor=#ffffff;imageAspect=0;aspect=fixed;image=https://cdn2.iconfinder.com/data/icons/woothemes/PNG/intruder.png" vertex="1" parent="1">
          <mxGeometry x="1156" y="1502" width="128" height="128" as="geometry" />
        </mxCell>
        <mxCell id="zLT0Esx3YDBOJbZAiZf_-27" style="edgeStyle=orthogonalEdgeStyle;rounded=0;orthogonalLoop=1;jettySize=auto;html=1;" edge="1" parent="1" source="zLT0Esx3YDBOJbZAiZf_-22" target="zLT0Esx3YDBOJbZAiZf_-16">
          <mxGeometry relative="1" as="geometry" />
        </mxCell>
        <mxCell id="zLT0Esx3YDBOJbZAiZf_-22" value="GENERACION TOKEN" style="shape=process;whiteSpace=wrap;html=1;backgroundOutline=1;" vertex="1" parent="1">
          <mxGeometry x="910" y="1780" width="120" height="60" as="geometry" />
        </mxCell>
        <mxCell id="zLT0Esx3YDBOJbZAiZf_-25" style="edgeStyle=orthogonalEdgeStyle;rounded=0;orthogonalLoop=1;jettySize=auto;html=1;entryX=1;entryY=0.75;entryDx=0;entryDy=0;" edge="1" parent="1" source="zLT0Esx3YDBOJbZAiZf_-24" target="zLT0Esx3YDBOJbZAiZf_-22">
          <mxGeometry relative="1" as="geometry" />
        </mxCell>
        <mxCell id="zLT0Esx3YDBOJbZAiZf_-24" value="" style="html=1;verticalLabelPosition=bottom;align=center;labelBackgroundColor=#ffffff;verticalAlign=top;strokeWidth=2;strokeColor=#0080F0;shadow=0;dashed=0;shape=mxgraph.ios7.icons.user;" vertex="1" parent="1">
          <mxGeometry x="1190" y="1785" width="60" height="75" as="geometry" />
        </mxCell>
        <mxCell id="zLT0Esx3YDBOJbZAiZf_-26" value="" style="outlineConnect=0;dashed=0;verticalLabelPosition=bottom;verticalAlign=top;align=center;html=1;shape=mxgraph.aws3.iam;fillColor=#759C3E;gradientColor=none;" vertex="1" parent="1">
          <mxGeometry x="1100" y="1660" width="42" height="81" as="geometry" />
        </mxCell>
        <mxCell id="zLT0Esx3YDBOJbZAiZf_-28" value="CLIENTE 1" style="shape=process;whiteSpace=wrap;html=1;backgroundOutline=1;" vertex="1" parent="1">
          <mxGeometry x="200" y="2180" width="120" height="60" as="geometry" />
        </mxCell>
        <mxCell id="zLT0Esx3YDBOJbZAiZf_-29" value="CLIENTE 2" style="shape=process;whiteSpace=wrap;html=1;backgroundOutline=1;" vertex="1" parent="1">
          <mxGeometry x="200" y="2270" width="120" height="60" as="geometry" />
        </mxCell>
        <mxCell id="zLT0Esx3YDBOJbZAiZf_-34" style="edgeStyle=orthogonalEdgeStyle;rounded=0;orthogonalLoop=1;jettySize=auto;html=1;exitX=0;exitY=0.5;exitDx=0;exitDy=0;" edge="1" parent="1" source="zLT0Esx3YDBOJbZAiZf_-30" target="zLT0Esx3YDBOJbZAiZf_-28">
          <mxGeometry relative="1" as="geometry" />
        </mxCell>
        <mxCell id="zLT0Esx3YDBOJbZAiZf_-35" style="edgeStyle=orthogonalEdgeStyle;rounded=0;orthogonalLoop=1;jettySize=auto;html=1;" edge="1" parent="1" source="zLT0Esx3YDBOJbZAiZf_-30" target="zLT0Esx3YDBOJbZAiZf_-29">
          <mxGeometry relative="1" as="geometry" />
        </mxCell>
        <mxCell id="zLT0Esx3YDBOJbZAiZf_-30" value="LB CLIENTE" style="shape=process;whiteSpace=wrap;html=1;backgroundOutline=1;" vertex="1" parent="1">
          <mxGeometry x="470" y="2210" width="120" height="60" as="geometry" />
        </mxCell>
        <mxCell id="zLT0Esx3YDBOJbZAiZf_-31" value="CUENTA" style="shape=process;whiteSpace=wrap;html=1;backgroundOutline=1;" vertex="1" parent="1">
          <mxGeometry x="200" y="2410" width="120" height="60" as="geometry" />
        </mxCell>
        <mxCell id="zLT0Esx3YDBOJbZAiZf_-33" style="edgeStyle=orthogonalEdgeStyle;rounded=0;orthogonalLoop=1;jettySize=auto;html=1;" edge="1" parent="1" source="zLT0Esx3YDBOJbZAiZf_-32" target="zLT0Esx3YDBOJbZAiZf_-31">
          <mxGeometry relative="1" as="geometry" />
        </mxCell>
        <mxCell id="zLT0Esx3YDBOJbZAiZf_-32" value="LB CUENTA" style="shape=process;whiteSpace=wrap;html=1;backgroundOutline=1;" vertex="1" parent="1">
          <mxGeometry x="480" y="2410" width="120" height="60" as="geometry" />
        </mxCell>
        <mxCell id="zLT0Esx3YDBOJbZAiZf_-36" value="SECURITY" style="shape=process;whiteSpace=wrap;html=1;backgroundOutline=1;" vertex="1" parent="1">
          <mxGeometry x="195" y="2570" width="120" height="60" as="geometry" />
        </mxCell>
        <mxCell id="zLT0Esx3YDBOJbZAiZf_-38" value="" style="outlineConnect=0;dashed=0;verticalLabelPosition=bottom;verticalAlign=top;align=center;html=1;shape=mxgraph.aws3.iam;fillColor=#759C3E;gradientColor=none;" vertex="1" parent="1">
          <mxGeometry x="569" y="2240" width="42" height="81" as="geometry" />
        </mxCell>
        <mxCell id="zLT0Esx3YDBOJbZAiZf_-39" value="" style="outlineConnect=0;dashed=0;verticalLabelPosition=bottom;verticalAlign=top;align=center;html=1;shape=mxgraph.aws3.iam;fillColor=#759C3E;gradientColor=none;" vertex="1" parent="1">
          <mxGeometry x="580" y="2440" width="42" height="81" as="geometry" />
        </mxCell>
        <mxCell id="zLT0Esx3YDBOJbZAiZf_-41" style="edgeStyle=orthogonalEdgeStyle;rounded=0;orthogonalLoop=1;jettySize=auto;html=1;entryX=1;entryY=0.5;entryDx=0;entryDy=0;" edge="1" parent="1" source="zLT0Esx3YDBOJbZAiZf_-40" target="zLT0Esx3YDBOJbZAiZf_-36">
          <mxGeometry relative="1" as="geometry" />
        </mxCell>
        <mxCell id="zLT0Esx3YDBOJbZAiZf_-43" style="edgeStyle=orthogonalEdgeStyle;rounded=0;orthogonalLoop=1;jettySize=auto;html=1;entryX=1;entryY=0.25;entryDx=0;entryDy=0;" edge="1" parent="1" source="zLT0Esx3YDBOJbZAiZf_-40" target="zLT0Esx3YDBOJbZAiZf_-30">
          <mxGeometry relative="1" as="geometry" />
        </mxCell>
        <mxCell id="zLT0Esx3YDBOJbZAiZf_-40" value="" style="html=1;verticalLabelPosition=bottom;align=center;labelBackgroundColor=#ffffff;verticalAlign=top;strokeWidth=2;strokeColor=#0080F0;shadow=0;dashed=0;shape=mxgraph.ios7.icons.user;" vertex="1" parent="1">
          <mxGeometry x="940" y="2555" width="80" height="90" as="geometry" />
        </mxCell>
        <mxCell id="zLT0Esx3YDBOJbZAiZf_-42" value="" style="outlineConnect=0;dashed=0;verticalLabelPosition=bottom;verticalAlign=top;align=center;html=1;shape=mxgraph.aws3.iam;fillColor=#759C3E;gradientColor=none;" vertex="1" parent="1">
          <mxGeometry x="1160" y="2300" width="42" height="81" as="geometry" />
        </mxCell>
        <mxCell id="zLT0Esx3YDBOJbZAiZf_-45" style="edgeStyle=orthogonalEdgeStyle;rounded=0;orthogonalLoop=1;jettySize=auto;html=1;" edge="1" parent="1" source="zLT0Esx3YDBOJbZAiZf_-44" target="zLT0Esx3YDBOJbZAiZf_-29">
          <mxGeometry relative="1" as="geometry" />
        </mxCell>
        <mxCell id="zLT0Esx3YDBOJbZAiZf_-46" style="edgeStyle=orthogonalEdgeStyle;rounded=0;orthogonalLoop=1;jettySize=auto;html=1;entryX=0;entryY=0.75;entryDx=0;entryDy=0;" edge="1" parent="1" source="zLT0Esx3YDBOJbZAiZf_-44" target="zLT0Esx3YDBOJbZAiZf_-31">
          <mxGeometry relative="1" as="geometry" />
        </mxCell>
        <mxCell id="zLT0Esx3YDBOJbZAiZf_-44" value="ORQUESTADOR" style="shape=process;whiteSpace=wrap;html=1;backgroundOutline=1;" vertex="1" parent="1">
          <mxGeometry x="-60" y="2330" width="120" height="60" as="geometry" />
        </mxCell>
      </root>
    </mxGraphModel>
  </diagram>
</mxfile>
